<?xml version="1.0" encoding="utf-8"?>
<!-- Generator: Adobe Illustrator 19.0.0, SVG Export Plug-In . SVG Version: 6.00 Build 0)  -->
<svg version="1.1" id="Camada_1" xmlns="http://www.w3.org/2000/svg" xmlns:xlink="http://www.w3.org/1999/xlink" x="0px" y="0px"
	 viewBox="-205 297 200 200" enable-background="new -205 297 200 200" xml:space="preserve">
<radialGradient id="SVGID_1_" cx="-105" cy="397" r="88.4473" gradientUnits="userSpaceOnUse">
	<stop  offset="0" style="stop-color:#FFFFFF;stop-opacity:0"/>
	<stop  offset="1" style="stop-color:#00FFFF"/>
</radialGradient>
<path fill="url(#SVGID_1_)" stroke="#000000" stroke-width="0.5" stroke-miterlimit="10" d="M-116.6,313.4l-72,72
	c-6.4,6.4-6.4,16.8,0,23.3l72,72c6.4,6.4,16.8,6.4,23.3,0l72-72c6.4-6.4,6.4-16.8,0-23.3l-72-72
	C-99.8,306.9-110.2,306.9-116.6,313.4z M-179.7,385.4l63.1-63.1c6.4-6.4,16.8-6.4,23.3,0l63.1,63.1c6.4,6.4,6.4,16.8,0,23.3
	l-63.1,63.1c-6.4,6.4-16.8,6.4-23.3,0l-63.1-63.1C-186.1,402.2-186.1,391.8-179.7,385.4z"/>
</svg>
