<?xml version="1.0" encoding="utf-8"?>
<!-- Generator: Adobe Illustrator 19.0.0, SVG Export Plug-In . SVG Version: 6.00 Build 0)  -->
<svg version="1.1" id="Camada_1" xmlns="http://www.w3.org/2000/svg" xmlns:xlink="http://www.w3.org/1999/xlink" x="0px" y="0px"
	 viewBox="-205 297 200 200" enable-background="new -205 297 200 200" xml:space="preserve">
<g>
	<radialGradient id="SVGID_1_" cx="-105" cy="397" r="97" gradientUnits="userSpaceOnUse">
		<stop  offset="0.6749" style="stop-color:#FFFFFF;stop-opacity:0"/>
		<stop  offset="1" style="stop-color:#FFFFFF"/>
	</radialGradient>
	<path fill="url(#SVGID_1_)" stroke="#000000" stroke-width="0.5" stroke-miterlimit="10" d="M-93.9,304.6c-6.1-6.1-16.1-6.1-22.2,0
		l-31.7,31.7c-1.3,1.3-1.3,3.5,0,4.8l0,0c1.3,1.3,3.5,1.3,4.8,0l29.3-29.3c4.8-4.8,12.6-4.8,17.4,0l29.3,29.3c1.3,1.3,3.5,1.3,4.8,0
		l0,0c1.3-1.3,1.3-3.5,0-4.8L-93.9,304.6z M-160.9,354.2L-160.9,354.2c-1.3-1.3-3.5-1.3-4.9,0l-31.7,31.7c-6.1,6.1-6.1,16.1,0,22.2
		l31.7,31.7c1.3,1.3,3.5,1.3,4.8,0l0,0c1.3-1.3,1.3-3.5,0-4.8l-29.3-29.3c-4.8-4.8-4.8-12.6,0-17.4l29.3-29.3
		C-159.5,357.7-159.5,355.5-160.9,354.2z M-12.6,385.9l-31.7-31.7c-1.3-1.3-3.5-1.3-4.8,0l0,0c-1.3,1.3-1.3,3.5,0,4.8l29.3,29.3
		c4.8,4.8,4.8,12.6,0,17.4L-49.1,435c-1.3,1.3-1.3,3.5,0,4.8h0c1.3,1.3,3.5,1.3,4.8,0l31.7-31.7C-6.5,402-6.5,392-12.6,385.9z
		 M-96.3,482.1c-4.8,4.8-12.6,4.8-17.4,0l-29.3-29.3c-1.3-1.3-3.5-1.3-4.8,0l0,0c-1.3,1.3-1.3,3.5,0,4.8l31.7,31.7
		c6.1,6.1,16.1,6.1,22.2,0l31.7-31.7c1.3-1.3,1.3-3.5,0-4.8l0,0c-1.3-1.3-3.5-1.3-4.8,0L-96.3,482.1z"/>
	<radialGradient id="SVGID_2_" cx="-105" cy="397" r="78.9161" gradientUnits="userSpaceOnUse">
		<stop  offset="0.6749" style="stop-color:#FFFFFF;stop-opacity:0"/>
		<stop  offset="1" style="stop-color:#FFFFFF"/>
	</radialGradient>
	<path fill="url(#SVGID_2_)" stroke="#000000" stroke-width="0.5" stroke-miterlimit="10" d="M-96.3,321.7c-4.8-4.8-12.6-4.8-17.4,0
		L-138,346c-1.3,1.3-1.3,3.5,0,4.8l0.2,0.2c1.3,1.3,3.5,1.3,4.8,0l16.9-16.9c6.1-6.1,16.1-6.1,22.2,0l16.9,16.9
		c1.3,1.3,3.5,1.3,4.8,0l0.2-0.2c1.3-1.3,1.3-3.5,0-4.8L-96.3,321.7z M-150.9,364.2l-0.2-0.2c-1.3-1.3-3.5-1.3-4.8,0l-24.4,24.4
		c-4.8,4.8-4.8,12.6,0,17.4l24.4,24.4c1.3,1.3,3.5,1.3,4.8,0l0.2-0.2c1.3-1.3,1.3-3.5,0-4.8l-16.9-16.9c-6.1-6.1-6.1-16.1,0-22.2
		l16.9-16.9C-149.6,367.7-149.6,365.5-150.9,364.2z M-29.7,388.3L-54,364c-1.3-1.3-3.5-1.3-4.8,0l-0.2,0.2c-1.3,1.3-1.3,3.5,0,4.8
		l16.9,16.9c6.1,6.1,6.1,16.1,0,22.2L-59.1,425c-1.3,1.3-1.3,3.5,0,4.8l0.2,0.2c1.3,1.3,3.5,1.3,4.8,0l24.4-24.4
		C-24.9,400.9-24.9,393.1-29.7,388.3z M-93.9,459.8c-6.1,6.1-16.1,6.1-22.2,0l-16.9-16.9c-1.3-1.3-3.5-1.3-4.8,0l-0.2,0.2
		c-1.3,1.3-1.3,3.5,0,4.8l24.4,24.4c4.8,4.8,12.6,4.8,17.4,0l24.4-24.4c1.3-1.3,1.3-3.5,0-4.8l-0.2-0.2c-1.3-1.3-3.5-1.3-4.8,0
		L-93.9,459.8z"/>
</g>
</svg>
