<?xml version="1.0" encoding="utf-8"?>
<!-- Generator: Adobe Illustrator 19.0.0, SVG Export Plug-In . SVG Version: 6.00 Build 0)  -->
<svg version="1.1" id="Camada_1" xmlns="http://www.w3.org/2000/svg" xmlns:xlink="http://www.w3.org/1999/xlink" x="0px" y="0px"
	 viewBox="0 0 64 64" enable-background="new 0 0 64 64" xml:space="preserve">
<g id="XMLID_10_">
	
		<radialGradient id="XMLID_20_" cx="32" cy="34" r="29.035" gradientTransform="matrix(1 0 0 -1 0 66)" gradientUnits="userSpaceOnUse">
		<stop  offset="0.6749" style="stop-color:#FFFFFF;stop-opacity:0"/>
		<stop  offset="1" style="stop-color:#FFFFFF"/>
	</radialGradient>
	<path id="XMLID_16_" fill="url(#XMLID_20_)" stroke="#000000" stroke-width="5.000000e-002" stroke-miterlimit="10" d="M35.3,4.3
		c-1.8-1.8-4.8-1.8-6.6,0l-9.5,9.5c-0.4,0.4-0.4,1,0,1.4l0,0c0.4,0.4,1,0.4,1.4,0l8.8-8.8c1.4-1.4,3.8-1.4,5.2,0l8.8,8.8
		c0.4,0.4,1,0.4,1.4,0l0,0c0.4-0.4,0.4-1,0-1.4L35.3,4.3z M15.3,19.2L15.3,19.2c-0.4-0.4-1-0.4-1.5,0l-9.5,9.5
		c-1.8,1.8-1.8,4.8,0,6.6l9.5,9.5c0.4,0.4,1,0.4,1.4,0l0,0c0.4-0.4,0.4-1,0-1.4l-8.8-8.8c-1.4-1.4-1.4-3.8,0-5.2l8.8-8.8
		C15.7,20.2,15.7,19.6,15.3,19.2z M59.7,28.7l-9.5-9.5c-0.4-0.4-1-0.4-1.4,0l0,0c-0.4,0.4-0.4,1,0,1.4l8.8,8.8
		c1.4,1.4,1.4,3.8,0,5.2l-8.8,8.8c-0.4,0.4-0.4,1,0,1.4l0,0c0.4,0.4,1,0.4,1.4,0l9.5-9.5C61.5,33.5,61.5,30.5,59.7,28.7z M34.6,57.5
		c-1.4,1.4-3.8,1.4-5.2,0l-8.8-8.8c-0.4-0.4-1-0.4-1.4,0l0,0c-0.4,0.4-0.4,1,0,1.4l9.5,9.5c1.8,1.8,4.8,1.8,6.6,0l9.5-9.5
		c0.4-0.4,0.4-1,0-1.4l0,0c-0.4-0.4-1-0.4-1.4,0L34.6,57.5z"/>
	
		<radialGradient id="XMLID_21_" cx="32.015" cy="33.985" r="23.6232" gradientTransform="matrix(1 0 0 -1 0 66)" gradientUnits="userSpaceOnUse">
		<stop  offset="0.6749" style="stop-color:#FFFFFF;stop-opacity:0"/>
		<stop  offset="1" style="stop-color:#FFFFFF"/>
	</radialGradient>
	<path id="XMLID_11_" fill="url(#XMLID_21_)" stroke="#000000" stroke-width="5.000000e-002" stroke-miterlimit="10" d="M34.6,9.5
		c-1.4-1.4-3.8-1.4-5.2,0l-7.3,7.3c-0.4,0.4-0.4,1,0,1.4l0.1,0.1c0.4,0.4,1,0.4,1.4,0l5.1-5.1c1.8-1.8,4.8-1.8,6.6,0l5.1,5.1
		c0.4,0.4,1,0.4,1.4,0l0.1-0.1c0.4-0.4,0.4-1,0-1.4L34.6,9.5z M18.3,22.2L18.3,22.2c-0.4-0.4-1.1-0.4-1.5-0.1l-7.3,7.3
		c-1.4,1.4-1.4,3.8,0,5.2l7.3,7.3c0.4,0.4,1,0.4,1.4,0l0.1-0.1c0.4-0.4,0.4-1,0-1.4l-5.1-5.1c-1.8-1.8-1.8-4.8,0-6.6l5.1-5.1
		C18.7,23.2,18.7,22.6,18.3,22.2z M54.6,29.4l-7.3-7.3c-0.4-0.4-1-0.4-1.4,0l-0.1,0.1c-0.4,0.4-0.4,1,0,1.4l5.1,5.1
		c1.8,1.8,1.8,4.8,0,6.6l-5.1,5.1c-0.4,0.4-0.4,1,0,1.4l0.1,0.1c0.4,0.4,1,0.4,1.4,0l7.3-7.3C56,33.2,56,30.8,54.6,29.4z M35.3,50.8
		c-1.8,1.8-4.8,1.8-6.6,0l-5.1-5.1c-0.4-0.4-1-0.4-1.4,0l-0.1,0.1c-0.4,0.4-0.4,1,0,1.4l7.3,7.3c1.4,1.4,3.8,1.4,5.2,0l7.3-7.3
		c0.4-0.4,0.4-1,0-1.4l-0.1-0.1c-0.4-0.4-1-0.4-1.4,0L35.3,50.8z"/>
</g>
<g id="XMLID_9_">
	<g id="XMLID_12_">
		
			<radialGradient id="XMLID_22_" cx="268.6" cy="211.9" r="10.6802" gradientTransform="matrix(1 0 0 1 -236.6 -179.9)" gradientUnits="userSpaceOnUse">
			<stop  offset="0" style="stop-color:#FFFFFF;stop-opacity:0"/>
			<stop  offset="1" style="stop-color:#FFFFFF"/>
		</radialGradient>
		
			<circle id="XMLID_18_" fill="url(#XMLID_22_)" stroke="#000000" stroke-width="5.000000e-002" stroke-miterlimit="10" cx="32" cy="32" r="10.7"/>
		
			<radialGradient id="XMLID_23_" cx="268.6" cy="203.7892" r="1.1698" gradientTransform="matrix(1 0 0 1 -236.6 -179.9)" gradientUnits="userSpaceOnUse">
			<stop  offset="0" style="stop-color:#FFFFFF;stop-opacity:0"/>
			<stop  offset="1" style="stop-color:#FFFFFF"/>
		</radialGradient>
		<path id="XMLID_17_" fill="url(#XMLID_23_)" stroke="#000000" stroke-width="5.000000e-002" stroke-miterlimit="10" d="M30.9,24.2
			l0.7-1.2c0.2-0.3,0.7-0.3,0.9,0l0.7,1.2c0.2,0.3-0.1,0.8-0.4,0.8h-1.4C30.9,25,30.7,24.6,30.9,24.2z"/>
		
			<radialGradient id="XMLID_24_" cx="-157.3884" cy="218.4805" r="1.1701" gradientTransform="matrix(4.489659e-011 -1 1 4.489659e-011 -194.7551 -125.3884)" gradientUnits="userSpaceOnUse">
			<stop  offset="0" style="stop-color:#FFFFFF;stop-opacity:0"/>
			<stop  offset="1" style="stop-color:#FFFFFF"/>
		</radialGradient>
		<path id="XMLID_15_" fill="url(#XMLID_24_)" stroke="#000000" stroke-width="5.000000e-002" stroke-miterlimit="10" d="M24.1,33.1
			l-1.2-0.7c-0.3-0.2-0.3-0.7,0-0.9l1.2-0.7c0.3-0.2,0.8,0.1,0.8,0.4v1.4C24.8,33.1,24.4,33.3,24.1,33.1z"/>
		
			<radialGradient id="XMLID_25_" cx="-157.3884" cy="-188.7195" r="1.1701" gradientTransform="matrix(0 -1 -1 0 -148.4449 -125.3884)" gradientUnits="userSpaceOnUse">
			<stop  offset="0" style="stop-color:#FFFFFF;stop-opacity:0"/>
			<stop  offset="1" style="stop-color:#FFFFFF"/>
		</radialGradient>
		<path id="XMLID_14_" fill="url(#XMLID_25_)" stroke="#000000" stroke-width="5.000000e-002" stroke-miterlimit="10" d="M39.9,33.1
			l1.2-0.7c0.3-0.2,0.3-0.7,0-0.9l-1.2-0.7c-0.3-0.2-0.8,0.1-0.8,0.4v1.4C39.2,33.1,39.6,33.3,39.9,33.1z"/>
		
			<radialGradient id="XMLID_26_" cx="268.6" cy="-206.0108" r="1.1698" gradientTransform="matrix(1 0 0 -1 -236.6 -165.9)" gradientUnits="userSpaceOnUse">
			<stop  offset="0" style="stop-color:#FFFFFF;stop-opacity:0"/>
			<stop  offset="1" style="stop-color:#FFFFFF"/>
		</radialGradient>
		<path id="XMLID_13_" fill="url(#XMLID_26_)" stroke="#000000" stroke-width="5.000000e-002" stroke-miterlimit="10" d="M30.9,39.8
			l0.7,1.2c0.2,0.3,0.7,0.3,0.9,0l0.7-1.2c0.2-0.3-0.1-0.8-0.4-0.8h-1.4C30.9,39,30.7,39.4,30.9,39.8z"/>
	</g>
</g>
</svg>
