<?xml version="1.0" encoding="utf-8"?>
<!-- Generator: Adobe Illustrator 24.0.1, SVG Export Plug-In . SVG Version: 6.00 Build 0)  -->
<svg version="1.1" id="Camada_1" xmlns="http://www.w3.org/2000/svg" xmlns:xlink="http://www.w3.org/1999/xlink" x="0px" y="0px"
	 viewBox="0 0 64 64" style="enable-background:new 0 0 64 64;" xml:space="preserve">
<style type="text/css">
	.st0{fill:#FFFFFF;}
	.st1{fill:#FFFFFF;stroke:#000000;stroke-miterlimit:10;}
	.st2{fill:#FFFFFF;stroke:#000000;stroke-width:0.75;stroke-miterlimit:10;}
</style>
<g>
	<path class="st0" d="M32,1.59C15.21,1.59,1.59,15.21,1.59,32c0,16.79,13.62,30.41,30.41,30.41S62.41,48.79,62.41,32
		C62.41,15.21,48.79,1.59,32,1.59z M32,55.54C19,55.54,8.46,45,8.46,32S19,8.46,32,8.46S55.54,19,55.54,32S45,55.54,32,55.54z"/>
	<circle class="st1" cx="32" cy="32" r="19.2"/>
	<path class="st2" d="M30.78,17.09l-1.01,1.75c-0.54,0.94,0.14,2.11,1.22,2.11h2.02c1.08,0,1.76-1.17,1.22-2.11l-1.01-1.75
		C32.68,16.15,31.32,16.15,30.78,17.09z"/>
	<path class="st2" d="M17.09,33.22l1.75,1.01c0.94,0.54,2.11-0.14,2.11-1.22v-2.02c0-1.08-1.17-1.76-2.11-1.22l-1.75,1.01
		C16.15,31.32,16.15,32.68,17.09,33.22z"/>
	<path class="st2" d="M33.22,46.91l1.01-1.75c0.54-0.94-0.14-2.11-1.22-2.11h-2.02c-1.08,0-1.76,1.17-1.22,2.11l1.01,1.75
		C31.32,47.85,32.68,47.85,33.22,46.91z"/>
	<path class="st2" d="M46.91,30.78l-1.75-1.01c-0.94-0.54-2.11,0.14-2.11,1.22v2.02c0,1.08,1.17,1.76,2.11,1.22l1.75-1.01
		C47.85,32.68,47.85,31.32,46.91,30.78z"/>
</g>
</svg>
