<?xml version="1.0" encoding="utf-8"?>
<!-- Generator: Adobe Illustrator 24.0.1, SVG Export Plug-In . SVG Version: 6.00 Build 0)  -->
<svg version="1.1" id="Camada_1" xmlns="http://www.w3.org/2000/svg" xmlns:xlink="http://www.w3.org/1999/xlink" x="0px" y="0px"
	 viewBox="0 0 84 84" style="enable-background:new 0 0 84 84;" xml:space="preserve">
<style type="text/css">
	.st0{fill:url(#SVGID_1_);}
	.st1{fill:url(#SVGID_2_);}
	.st2{fill:url(#SVGID_3_);}
	.st3{fill:url(#SVGID_4_);}
	.st4{fill:url(#SVGID_5_);}
</style>
<g>
	<radialGradient id="SVGID_1_" cx="42" cy="42" r="35.6865" gradientUnits="userSpaceOnUse">
		<stop  offset="0.0228" style="stop-color:#FFFFFF;stop-opacity:0"/>
		<stop  offset="0.698" style="stop-color:#FFFFFF;stop-opacity:0.3"/>
		<stop  offset="1" style="stop-color:#FFFFFF;stop-opacity:0.8"/>
	</radialGradient>
	<circle class="st0" cx="42" cy="42" r="35.69"/>
	<g>
		<radialGradient id="SVGID_2_" cx="15.8977" cy="12.8112" r="33.5702" gradientUnits="userSpaceOnUse">
			<stop  offset="0.0228" style="stop-color:#FFFFFF;stop-opacity:0"/>
			<stop  offset="0.698" style="stop-color:#FFFFFF;stop-opacity:0.3"/>
			<stop  offset="1" style="stop-color:#FFFFFF;stop-opacity:0.8"/>
		</radialGradient>
		<path class="st1" d="M40.29,14.01l-0.8,1.39c-0.76,1.32,0.19,2.96,1.71,2.96h1.61c1.52,0,2.47-1.65,1.71-2.96l-0.8-1.39
			C42.95,12.69,41.05,12.69,40.29,14.01z"/>
		
			<radialGradient id="SVGID_3_" cx="-84.983" cy="98.9902" r="33.5702" gradientTransform="matrix(4.489659e-11 -1 1 4.489659e-11 -86.1789 -16.8807)" gradientUnits="userSpaceOnUse">
			<stop  offset="0.0228" style="stop-color:#FFFFFF;stop-opacity:0"/>
			<stop  offset="0.698" style="stop-color:#FFFFFF;stop-opacity:0.3"/>
			<stop  offset="1" style="stop-color:#FFFFFF;stop-opacity:0.8"/>
		</radialGradient>
		<path class="st2" d="M14.01,43.71l1.39,0.8c1.32,0.76,2.96-0.19,2.96-1.71V41.2c0-1.52-1.65-2.47-2.96-1.71l-1.39,0.8
			C12.69,41.05,12.69,42.95,14.01,43.71z"/>
		
			<radialGradient id="SVGID_4_" cx="-171.1619" cy="-1.8906" r="33.5702" gradientTransform="matrix(-1 0 0 -1 -103.0596 69.2982)" gradientUnits="userSpaceOnUse">
			<stop  offset="0.0228" style="stop-color:#FFFFFF;stop-opacity:0"/>
			<stop  offset="0.698" style="stop-color:#FFFFFF;stop-opacity:0.3"/>
			<stop  offset="1" style="stop-color:#FFFFFF;stop-opacity:0.8"/>
		</radialGradient>
		<path class="st3" d="M43.71,69.99l0.8-1.39c0.76-1.32-0.19-2.96-1.71-2.96H41.2c-1.52,0-2.47,1.65-1.71,2.96l0.8,1.39
			C41.05,71.31,42.95,71.31,43.71,69.99z"/>
		
			<radialGradient id="SVGID_5_" cx="-70.2812" cy="-88.0695" r="33.5702" gradientTransform="matrix(-4.489659e-11 1 -1 -4.489659e-11 -16.8807 86.1789)" gradientUnits="userSpaceOnUse">
			<stop  offset="0.0228" style="stop-color:#FFFFFF;stop-opacity:0"/>
			<stop  offset="0.698" style="stop-color:#FFFFFF;stop-opacity:0.3"/>
			<stop  offset="1" style="stop-color:#FFFFFF;stop-opacity:0.8"/>
		</radialGradient>
		<path class="st4" d="M69.99,40.29l-1.39-0.8c-1.32-0.76-2.96,0.19-2.96,1.71v1.61c0,1.52,1.65,2.47,2.96,1.71l1.39-0.8
			C71.31,42.95,71.31,41.05,69.99,40.29z"/>
	</g>
</g>
</svg>
