<?xml version="1.0" encoding="utf-8"?>
<!-- Generator: Adobe Illustrator 19.0.0, SVG Export Plug-In . SVG Version: 6.00 Build 0)  -->
<svg version="1.1" id="Camada_1" xmlns="http://www.w3.org/2000/svg" xmlns:xlink="http://www.w3.org/1999/xlink" x="0px" y="0px"
	 viewBox="0 0 16 16" enable-background="new 0 0 16 16" xml:space="preserve">
<g>
	
		<radialGradient id="SVGID_1_" cx="8" cy="10" r="7.4212" gradientTransform="matrix(1 0 0 -1 0 18)" gradientUnits="userSpaceOnUse">
		<stop  offset="0" style="stop-color:#FFFFFF;stop-opacity:0"/>
		<stop  offset="1" style="stop-color:#00FFFF"/>
	</radialGradient>
	<path fill="url(#SVGID_1_)" stroke="#000000" stroke-width="5.000000e-002" stroke-miterlimit="10" d="M8.9,0.9
		c-0.5-0.5-1.2-0.5-1.7,0L4.7,3.4c-0.1,0.1-0.1,0.3,0,0.4l0,0c0.1,0.1,0.3,0.1,0.4,0l2.2-2.2c0.4-0.4,1-0.4,1.3,0l2.2,2.2
		c0.1,0.1,0.3,0.1,0.4,0l0,0c0.1-0.1,0.1-0.3,0-0.4L8.9,0.9z M3.7,4.7L3.7,4.7c-0.1-0.1-0.3-0.1-0.4,0L0.9,7.2
		c-0.5,0.5-0.5,1.2,0,1.7l2.4,2.4c0.1,0.1,0.3,0.1,0.4,0l0,0c0.1-0.1,0.1-0.3,0-0.4L1.5,8.7c-0.4-0.4-0.4-1,0-1.3l2.2-2.2
		C3.8,5,3.8,4.8,3.7,4.7z M15.1,7.2l-2.4-2.4c-0.1-0.1-0.3-0.1-0.4,0l0,0c-0.1,0.1-0.1,0.3,0,0.4l2.2,2.2c0.4,0.4,0.4,1,0,1.3
		l-2.2,2.2c-0.1,0.1-0.1,0.3,0,0.4l0,0c0.1,0.1,0.3,0.1,0.4,0l2.4-2.4C15.5,8.4,15.5,7.6,15.1,7.2z M8.7,14.5c-0.4,0.4-1,0.4-1.3,0
		l-2.2-2.2c-0.1-0.1-0.3-0.1-0.4,0l0,0c-0.1,0.1-0.1,0.3,0,0.4l2.4,2.4c0.5,0.5,1.2,0.5,1.7,0l2.4-2.4c0.1-0.1,0.1-0.3,0-0.4l0,0
		c-0.1-0.1-0.3-0.1-0.4,0L8.7,14.5z"/>
	
		<radialGradient id="SVGID_2_" cx="8.0038" cy="9.9962" r="6.0379" gradientTransform="matrix(1 0 0 -1 0 18)" gradientUnits="userSpaceOnUse">
		<stop  offset="0" style="stop-color:#FFFFFF;stop-opacity:0"/>
		<stop  offset="1" style="stop-color:#00FFFF"/>
	</radialGradient>
	<path fill="url(#SVGID_2_)" stroke="#000000" stroke-width="5.000000e-002" stroke-miterlimit="10" d="M8.7,2.2
		c-0.4-0.4-1-0.4-1.3,0L5.5,4.1c-0.1,0.1-0.1,0.3,0,0.4l0,0c0.1,0.1,0.3,0.1,0.4,0l1.3-1.3c0.5-0.5,1.2-0.5,1.7,0l1.3,1.3
		c0.1,0.1,0.3,0.1,0.4,0l0,0c0.1-0.1,0.1-0.3,0-0.4L8.7,2.2z M4.5,5.5L4.5,5.5c-0.1-0.1-0.3-0.1-0.4,0L2.2,7.3c-0.4,0.4-0.4,1,0,1.3
		l1.9,1.9c0.1,0.1,0.3,0.1,0.4,0l0,0c0.1-0.1,0.1-0.3,0-0.4L3.2,8.9c-0.5-0.5-0.5-1.2,0-1.7l1.3-1.3C4.6,5.8,4.6,5.6,4.5,5.5z
		 M13.8,7.3l-1.9-1.9c-0.1-0.1-0.3-0.1-0.4,0l0,0c-0.1,0.1-0.1,0.3,0,0.4l1.3,1.3c0.5,0.5,0.5,1.2,0,1.7l-1.3,1.3
		c-0.1,0.1-0.1,0.3,0,0.4l0,0c0.1,0.1,0.3,0.1,0.4,0l1.9-1.9C14.1,8.3,14.1,7.7,13.8,7.3z M8.9,12.8c-0.5,0.5-1.2,0.5-1.7,0
		l-1.3-1.3c-0.1-0.1-0.3-0.1-0.4,0l0,0c-0.1,0.1-0.1,0.3,0,0.4l1.9,1.9c0.4,0.4,1,0.4,1.3,0l1.9-1.9c0.1-0.1,0.1-0.3,0-0.4l0,0
		c-0.1-0.1-0.3-0.1-0.4,0L8.9,12.8z"/>
</g>
</svg>
