<?xml version="1.0" encoding="utf-8"?>
<!-- Generator: Adobe Illustrator 19.0.0, SVG Export Plug-In . SVG Version: 6.00 Build 0)  -->
<svg version="1.1" id="Camada_1" xmlns="http://www.w3.org/2000/svg" xmlns:xlink="http://www.w3.org/1999/xlink" x="0px" y="0px"
	 viewBox="0 0 16 16" style="enable-background:new 0 0 16 16;" xml:space="preserve">
<radialGradient id="XMLID_25_" cx="8" cy="8" r="5.4626" gradientUnits="userSpaceOnUse">
	<stop  offset="0" style="stop-color:#F2F2F2;stop-opacity:0"/>
	<stop  offset="1" style="stop-color:#00A0C6;stop-opacity:0.6"/>
</radialGradient>
<circle id="XMLID_1_" style="fill:url(#XMLID_25_);stroke:#00A0C6;stroke-width:0.2;stroke-miterlimit:10;" cx="8" cy="8" r="5.5"/>
<g id="XMLID_7_">
	<g id="XMLID_2_">
		<path id="XMLID_3_" style="fill:#99D9E8;" d="M1,6l0.4,0.3c0.2,0.1,0.4,0,0.4-0.2V5.5c0-0.2-0.2-0.3-0.4-0.2L1,5.6
			C0.9,5.7,0.9,5.9,1,6l0.4,0.3c0.2,0.1,0.4,0,0.4-0.2V5.5c0-0.2-0.2-0.3-0.4-0.2L1,5.6C0.9,5.7,0.9,5.9,1,6z"/>
		<path id="XMLID_4_" style="fill:#99D9E8;" d="M1.9,5.5V6c0,0.1-0.1,0.2-0.1,0.2c0,0-0.1,0-0.1,0c0,0-0.1,0-0.1,0L1,6
			C0.9,6,0.9,5.9,0.9,5.8c0,0,0,0,0,0c0,0,0,0,0,0c0-0.1,0.1-0.2,0.1-0.2l0.4-0.3c0,0,0.1,0,0.1,0c0,0,0.1,0,0.1,0
			C1.8,5.3,1.9,5.4,1.9,5.5z M1.6,6.2c0,0,0.1,0,0.1,0c0.1,0,0.1-0.1,0.1-0.2V5.5c0-0.1,0-0.1-0.1-0.2c0,0-0.1,0-0.1,0
			c0,0-0.1,0-0.1,0L1.1,5.6C1,5.6,0.9,5.7,0.9,5.8c0,0,0,0,0,0c0,0.1,0,0.1,0.1,0.2l0.4,0.3C1.5,6.2,1.6,6.2,1.6,6.2z"/>
	</g>
	<g id="XMLID_8_">
		<path id="XMLID_12_" style="fill:#99D9E8;" d="M1,9.7h0.5c0.2,0,0.3-0.2,0.2-0.4L1.4,8.9C1.3,8.8,1.1,8.8,1,8.9L0.8,9.4
			C0.7,9.5,0.8,9.7,1,9.7h0.5c0.2,0,0.3-0.2,0.2-0.4L1.4,8.9C1.3,8.8,1.1,8.8,1,8.9L0.8,9.4C0.7,9.5,0.8,9.7,1,9.7z"/>
		<path id="XMLID_9_" style="fill:#99D9E8;" d="M1.5,8.9l0.3,0.4c0,0.1,0,0.2,0,0.3c0,0-0.1,0.1-0.1,0.1c0,0-0.1,0-0.1,0L1,9.8
			c-0.1,0-0.2,0-0.2-0.1c0,0,0,0,0,0c0,0,0,0,0,0c0-0.1,0-0.2,0-0.3L1,8.9c0,0,0.1-0.1,0.1-0.1c0,0,0.1,0,0.1,0
			C1.3,8.8,1.4,8.8,1.5,8.9z M1.6,9.7C1.6,9.7,1.6,9.6,1.6,9.7c0.1-0.1,0.1-0.2,0.1-0.3L1.4,8.9c0-0.1-0.1-0.1-0.2-0.1
			c0,0-0.1,0-0.1,0c0,0-0.1,0-0.1,0.1L0.8,9.4c0,0.1,0,0.2,0,0.2c0,0,0,0,0,0c0,0.1,0.1,0.1,0.2,0.1l0.5,0C1.5,9.7,1.6,9.7,1.6,9.7z
			"/>
	</g>
	<g id="XMLID_14_">
		<path id="XMLID_18_" style="fill:#99D9E8;" d="M2.8,13l0.4-0.3c0.2-0.1,0.2-0.3,0-0.4l-0.4-0.3c-0.2-0.1-0.4,0-0.4,0.2v0.5
			C2.4,13,2.6,13.1,2.8,13l0.4-0.3c0.2-0.1,0.2-0.3,0-0.4l-0.4-0.3c-0.2-0.1-0.4,0-0.4,0.2v0.5C2.4,13,2.6,13.1,2.8,13z"/>
		<path id="XMLID_15_" style="fill:#99D9E8;" d="M2.8,12.1l0.4,0.3c0.1,0,0.1,0.1,0.1,0.2c0,0,0,0.1,0,0.1c0,0-0.1,0.1-0.1,0.1
			L2.8,13c-0.1,0-0.2,0-0.3,0c0,0,0,0,0,0c0,0,0,0,0,0c-0.1,0-0.1-0.1-0.1-0.2l0-0.5c0,0,0-0.1,0-0.1c0,0,0.1-0.1,0.1-0.1
			C2.6,12,2.7,12,2.8,12.1z M3.3,12.7c0,0,0-0.1,0-0.1c0-0.1,0-0.2-0.1-0.2l-0.4-0.3c-0.1,0-0.2,0-0.2,0c0,0-0.1,0-0.1,0.1
			c0,0,0,0.1,0,0.1l0,0.5c0,0.1,0,0.1,0.1,0.2c0,0,0,0,0,0c0.1,0,0.2,0,0.2,0L3.3,12.7C3.2,12.7,3.3,12.7,3.3,12.7z"/>
	</g>
	<g id="XMLID_20_">
		<path id="XMLID_24_" style="fill:#99D9E8;" d="M6,15l0.3-0.4c0.1-0.2,0-0.4-0.2-0.4H5.5c-0.2,0-0.3,0.2-0.2,0.4L5.6,15
			C5.7,15.1,5.9,15.1,6,15l0.3-0.4c0.1-0.2,0-0.4-0.2-0.4H5.5c-0.2,0-0.3,0.2-0.2,0.4L5.6,15C5.7,15.1,5.9,15.1,6,15z"/>
		<path id="XMLID_21_" style="fill:#99D9E8;" d="M5.5,14.1H6c0.1,0,0.2,0.1,0.2,0.1c0,0,0,0.1,0,0.1s0,0.1,0,0.1L6,15
			c0,0.1-0.1,0.1-0.2,0.1c0,0,0,0,0,0c0,0,0,0,0,0c-0.1,0-0.2-0.1-0.2-0.1l-0.3-0.4c0,0,0-0.1,0-0.1s0-0.1,0-0.1
			C5.3,14.2,5.4,14.1,5.5,14.1z M6.2,14.4c0,0,0-0.1,0-0.1c0-0.1-0.1-0.1-0.2-0.1H5.5c-0.1,0-0.1,0-0.2,0.1c0,0,0,0.1,0,0.1
			c0,0,0,0.1,0,0.1l0.3,0.4c0,0.1,0.1,0.1,0.2,0.1c0,0,0,0,0,0c0.1,0,0.1,0,0.2-0.1l0.3-0.4C6.2,14.5,6.2,14.4,6.2,14.4z"/>
	</g>
	<g id="XMLID_26_">
		<path id="XMLID_30_" style="fill:#99D9E8;" d="M9.7,15v-0.5c0-0.2-0.2-0.3-0.4-0.2l-0.4,0.3c-0.2,0.1-0.2,0.3,0,0.4l0.4,0.3
			C9.5,15.3,9.7,15.2,9.7,15v-0.5c0-0.2-0.2-0.3-0.4-0.2l-0.4,0.3c-0.2,0.1-0.2,0.3,0,0.4l0.4,0.3C9.5,15.3,9.7,15.2,9.7,15z"/>
		<path id="XMLID_27_" style="fill:#99D9E8;" d="M8.9,14.5l0.4-0.3c0.1,0,0.2,0,0.3,0c0,0,0.1,0.1,0.1,0.1c0,0,0,0.1,0,0.1l0,0.5
			c0,0.1,0,0.2-0.1,0.2c0,0,0,0,0,0c0,0,0,0,0,0c-0.1,0-0.2,0-0.3,0L8.9,15c0,0-0.1-0.1-0.1-0.1c0,0,0-0.1,0-0.1
			C8.8,14.7,8.8,14.6,8.9,14.5z M9.7,14.4C9.7,14.4,9.6,14.4,9.7,14.4c-0.1-0.1-0.2-0.1-0.3-0.1l-0.4,0.3c-0.1,0-0.1,0.1-0.1,0.2
			c0,0,0,0.1,0,0.1c0,0,0,0.1,0.1,0.1l0.4,0.3c0.1,0,0.2,0,0.2,0c0,0,0,0,0,0c0.1,0,0.1-0.1,0.1-0.2l0-0.5
			C9.7,14.5,9.7,14.4,9.7,14.4z"/>
	</g>
	<g id="XMLID_32_">
		<path id="XMLID_36_" style="fill:#99D9E8;" d="M13,13.2l-0.3-0.4c-0.1-0.2-0.3-0.2-0.4,0l-0.3,0.4c-0.1,0.2,0,0.4,0.2,0.4h0.5
			C13,13.6,13.1,13.4,13,13.2l-0.3-0.4c-0.1-0.2-0.3-0.2-0.4,0l-0.3,0.4c-0.1,0.2,0,0.4,0.2,0.4h0.5C13,13.6,13.1,13.4,13,13.2z"/>
		<path id="XMLID_33_" style="fill:#99D9E8;" d="M12.1,13.2l0.3-0.4c0-0.1,0.1-0.1,0.2-0.1c0,0,0.1,0,0.1,0c0,0,0.1,0.1,0.1,0.1
			l0.3,0.4c0,0.1,0,0.2,0,0.3c0,0,0,0,0,0c0,0,0,0,0,0c0,0.1-0.1,0.1-0.2,0.1l-0.5,0c0,0-0.1,0-0.1,0c0,0-0.1-0.1-0.1-0.1
			C12,13.4,12,13.3,12.1,13.2z M12.7,12.7c0,0-0.1,0-0.1,0c-0.1,0-0.2,0-0.2,0.1l-0.3,0.4c0,0.1,0,0.2,0,0.2c0,0,0,0.1,0.1,0.1
			c0,0,0.1,0,0.1,0l0.5,0c0.1,0,0.1,0,0.2-0.1c0,0,0,0,0,0c0-0.1,0-0.2,0-0.2L12.7,12.7C12.7,12.8,12.7,12.7,12.7,12.7z"/>
	</g>
	<g id="XMLID_38_">
		<path id="XMLID_42_" style="fill:#99D9E8;" d="M15,10l-0.4-0.3c-0.2-0.1-0.4,0-0.4,0.2v0.5c0,0.2,0.2,0.3,0.4,0.2l0.4-0.3
			C15.1,10.3,15.1,10.1,15,10l-0.4-0.3c-0.2-0.1-0.4,0-0.4,0.2v0.5c0,0.2,0.2,0.3,0.4,0.2l0.4-0.3C15.1,10.3,15.1,10.1,15,10z"/>
		<path id="XMLID_39_" style="fill:#99D9E8;" d="M14.1,10.5V10c0-0.1,0.1-0.2,0.1-0.2c0,0,0.1,0,0.1,0s0.1,0,0.1,0L15,10
			c0.1,0,0.1,0.1,0.1,0.2c0,0,0,0,0,0c0,0,0,0,0,0c0,0.1-0.1,0.2-0.1,0.2l-0.4,0.3c0,0-0.1,0-0.1,0s-0.1,0-0.1,0
			C14.2,10.7,14.1,10.6,14.1,10.5z M14.4,9.8c0,0-0.1,0-0.1,0c-0.1,0-0.1,0.1-0.1,0.2v0.5c0,0.1,0,0.1,0.1,0.2c0,0,0.1,0,0.1,0
			c0,0,0.1,0,0.1,0l0.4-0.3c0.1,0,0.1-0.1,0.1-0.2c0,0,0,0,0,0c0-0.1,0-0.1-0.1-0.2l-0.4-0.3C14.5,9.8,14.4,9.8,14.4,9.8z"/>
	</g>
	<g id="XMLID_44_">
		<path id="XMLID_48_" style="fill:#99D9E8;" d="M15,6.3h-0.5c-0.2,0-0.3,0.2-0.2,0.4l0.3,0.4c0.1,0.2,0.3,0.2,0.4,0l0.3-0.4
			C15.3,6.5,15.2,6.3,15,6.3h-0.5c-0.2,0-0.3,0.2-0.2,0.4l0.3,0.4c0.1,0.2,0.3,0.2,0.4,0l0.3-0.4C15.3,6.5,15.2,6.3,15,6.3z"/>
		<path id="XMLID_45_" style="fill:#99D9E8;" d="M14.5,7.1l-0.3-0.4c0-0.1,0-0.2,0-0.3c0,0,0.1-0.1,0.1-0.1c0,0,0.1,0,0.1,0l0.5,0
			c0.1,0,0.2,0,0.2,0.1c0,0,0,0,0,0c0,0,0,0,0,0c0,0.1,0,0.2,0,0.3L15,7.1c0,0-0.1,0.1-0.1,0.1s-0.1,0-0.1,0
			C14.7,7.2,14.6,7.2,14.5,7.1z M14.4,6.3C14.4,6.3,14.4,6.4,14.4,6.3c-0.1,0.1-0.1,0.2-0.1,0.3l0.3,0.4c0,0.1,0.1,0.1,0.2,0.1
			c0,0,0.1,0,0.1,0c0,0,0.1,0,0.1-0.1l0.3-0.4c0-0.1,0-0.2,0-0.2c0,0,0,0,0,0c0-0.1-0.1-0.1-0.2-0.1l-0.5,0
			C14.5,6.3,14.4,6.3,14.4,6.3z"/>
	</g>
	<g id="XMLID_50_">
		<path id="XMLID_54_" style="fill:#99D9E8;" d="M13.2,3l-0.4,0.3c-0.2,0.1-0.2,0.3,0,0.4l0.4,0.3c0.2,0.1,0.4,0,0.4-0.2V3.2
			C13.6,3,13.4,2.9,13.2,3l-0.4,0.3c-0.2,0.1-0.2,0.3,0,0.4l0.4,0.3c0.2,0.1,0.4,0,0.4-0.2V3.2C13.6,3,13.4,2.9,13.2,3z"/>
		<path id="XMLID_51_" style="fill:#99D9E8;" d="M13.2,3.9l-0.4-0.3c-0.1,0-0.1-0.1-0.1-0.2c0,0,0-0.1,0-0.1c0,0,0.1-0.1,0.1-0.1
			L13.2,3c0.1,0,0.2,0,0.3,0c0,0,0,0,0,0c0,0,0,0,0,0c0.1,0,0.1,0.1,0.1,0.2l0,0.5c0,0,0,0.1,0,0.1c0,0-0.1,0.1-0.1,0.1
			C13.4,4,13.3,4,13.2,3.9z M12.7,3.3c0,0,0,0.1,0,0.1c0,0.1,0,0.2,0.1,0.2l0.4,0.3c0.1,0,0.2,0,0.2,0c0,0,0.1,0,0.1-0.1
			c0,0,0-0.1,0-0.1l0-0.5c0-0.1,0-0.1-0.1-0.2c0,0,0,0,0,0c-0.1,0-0.2,0-0.2,0L12.7,3.3C12.8,3.3,12.7,3.3,12.7,3.3z"/>
	</g>
	<g id="XMLID_56_">
		<path id="XMLID_60_" style="fill:#99D9E8;" d="M10,1L9.8,1.5c-0.1,0.2,0,0.4,0.2,0.4h0.5c0.2,0,0.3-0.2,0.2-0.4L10.4,1
			C10.3,0.9,10.1,0.9,10,1L9.8,1.5c-0.1,0.2,0,0.4,0.2,0.4h0.5c0.2,0,0.3-0.2,0.2-0.4L10.4,1C10.3,0.9,10.1,0.9,10,1z"/>
		<path id="XMLID_57_" style="fill:#99D9E8;" d="M10.5,1.9H10c-0.1,0-0.2-0.1-0.2-0.1c0,0,0-0.1,0-0.1c0,0,0-0.1,0-0.1L10,1
			c0-0.1,0.1-0.1,0.2-0.1c0,0,0,0,0,0c0,0,0,0,0,0c0.1,0,0.2,0.1,0.2,0.1l0.3,0.4c0,0,0,0.1,0,0.1c0,0,0,0.1,0,0.1
			C10.7,1.8,10.6,1.9,10.5,1.9z M9.8,1.6c0,0,0,0.1,0,0.1c0,0.1,0.1,0.1,0.2,0.1h0.5c0.1,0,0.1,0,0.2-0.1c0,0,0-0.1,0-0.1
			c0,0,0-0.1,0-0.1l-0.3-0.4c0-0.1-0.1-0.1-0.2-0.1c0,0,0,0,0,0c-0.1,0-0.1,0-0.2,0.1L9.8,1.5C9.8,1.5,9.8,1.6,9.8,1.6z"/>
	</g>
	<g id="XMLID_62_">
		<path id="XMLID_66_" style="fill:#99D9E8;" d="M6.3,1v0.5c0,0.2,0.2,0.3,0.4,0.2l0.4-0.3c0.2-0.1,0.2-0.3,0-0.4L6.6,0.8
			C6.5,0.7,6.3,0.8,6.3,1v0.5c0,0.2,0.2,0.3,0.4,0.2l0.4-0.3c0.2-0.1,0.2-0.3,0-0.4L6.6,0.8C6.5,0.7,6.3,0.8,6.3,1z"/>
		<path id="XMLID_63_" style="fill:#99D9E8;" d="M7.1,1.5L6.6,1.7c-0.1,0-0.2,0-0.3,0c0,0-0.1-0.1-0.1-0.1s0-0.1,0-0.1l0-0.5
			c0-0.1,0-0.2,0.1-0.2c0,0,0,0,0,0c0,0,0,0,0,0c0.1,0,0.2,0,0.3,0L7.1,1c0,0,0.1,0.1,0.1,0.1c0,0,0,0.1,0,0.1
			C7.2,1.3,7.2,1.4,7.1,1.5z M6.3,1.6C6.3,1.6,6.4,1.6,6.3,1.6c0.1,0.1,0.2,0.1,0.3,0.1l0.4-0.3c0.1,0,0.1-0.1,0.1-0.2
			c0,0,0-0.1,0-0.1c0,0,0-0.1-0.1-0.1L6.6,0.8c-0.1,0-0.2,0-0.2,0c0,0,0,0,0,0C6.3,0.8,6.3,0.9,6.3,1l0,0.5C6.3,1.5,6.3,1.6,6.3,1.6
			z"/>
	</g>
	<g id="XMLID_68_">
		<path id="XMLID_72_" style="fill:#99D9E8;" d="M3,2.8l0.3,0.4c0.1,0.2,0.3,0.2,0.4,0l0.3-0.4c0.1-0.2,0-0.4-0.2-0.4H3.2
			C3,2.4,2.9,2.6,3,2.8l0.3,0.4c0.1,0.2,0.3,0.2,0.4,0l0.3-0.4c0.1-0.2,0-0.4-0.2-0.4H3.2C3,2.4,2.9,2.6,3,2.8z"/>
		<path id="XMLID_69_" style="fill:#99D9E8;" d="M3.9,2.8L3.7,3.2c0,0.1-0.1,0.1-0.2,0.1c0,0-0.1,0-0.1,0c0,0-0.1-0.1-0.1-0.1L3,2.8
			c0-0.1,0-0.2,0-0.3c0,0,0,0,0,0c0,0,0,0,0,0c0-0.1,0.1-0.1,0.2-0.1l0.5,0c0,0,0.1,0,0.1,0c0,0,0.1,0.1,0.1,0.1
			C4,2.6,4,2.7,3.9,2.8z M3.3,3.3c0,0,0.1,0,0.1,0c0.1,0,0.2,0,0.2-0.1l0.3-0.4c0-0.1,0-0.2,0-0.2c0,0,0-0.1-0.1-0.1
			c0,0-0.1,0-0.1,0l-0.5,0C3.1,2.4,3,2.5,3,2.5c0,0,0,0,0,0c0,0.1,0,0.2,0,0.2L3.3,3.3C3.3,3.2,3.3,3.3,3.3,3.3z"/>
	</g>
</g>
<circle id="XMLID_13_" style="fill:#67C6DD;" cx="8" cy="8" r="3.3"/>
</svg>
